<?xml version="1.0" encoding="UTF-8" standalone="no"?><!DOCTYPE svg PUBLIC "-//W3C//DTD SVG 1.1//EN" "http://www.w3.org/Graphics/SVG/1.1/DTD/svg11.dtd"><svg width="100%" height="100%" viewBox="0 0 38 38" version="1.1" xmlns="http://www.w3.org/2000/svg" xmlns:xlink="http://www.w3.org/1999/xlink" xml:space="preserve" xmlns:serif="http://www.serif.com/" style="fill-rule:evenodd;clip-rule:evenodd;stroke-linecap:round;stroke-linejoin:round;stroke-miterlimit:1.5;"><path d="M16.878,2.5c3.935,-0 7.129,7.393 7.129,16.5c-0,9.107 -3.194,16.5 -7.129,16.5c-3.934,0 -7.128,-7.393 -7.128,-16.5c-0,-9.107 3.194,-16.5 7.128,-16.5Zm0,7.074c2.248,0 4.073,4.224 4.073,9.426c-0,5.202 -1.825,9.426 -4.073,9.426c-2.247,-0 -4.072,-4.224 -4.072,-9.426c0,-5.202 1.825,-9.426 4.072,-9.426Z" style="stroke:#000;stroke-width:0.5px;"/><path d="M16.878,10.25c1.476,0 2.674,3.921 2.674,8.75c-0,4.829 -1.198,8.75 -2.674,8.75c-1.475,0 -2.673,-3.921 -2.673,-8.75c0,-4.829 1.198,-8.75 2.673,-8.75Zm0,3.752c0.843,-0 1.527,2.239 1.527,4.998c0,2.759 -0.684,4.998 -1.527,4.998c-0.842,0 -1.527,-2.239 -1.527,-4.998c0,-2.759 0.685,-4.998 1.527,-4.998Z" style="stroke:#000;stroke-width:0.5px;"/><path d="M21.509,8.903c-0.362,-0.3 9.032,5.097 9.032,5.097c1.707,-0.028 1.81,9.868 0,10" style="fill:none;stroke:#000;stroke-width:1.5px;"/><path d="M21.516,30.087c-0.291,-0.447 9.025,-6.087 9.025,-6.087" style="fill:none;stroke:#000;stroke-width:1.5px;"/><path d="M26.025,11.416c1.687,4.48 1.626,9.635 0,15.392" style="fill:none;stroke:#000;stroke-width:1.5px;"/></svg>